<svg width="32" height="32" viewBox="0 0 32 32" fill="none" xmlns="http://www.w3.org/2000/svg">
<path d="M29.575 24.0643L25.6357 21.7893C25.571 21.7522 25.4996 21.7283 25.4257 21.7188C25.3517 21.7094 25.2766 21.7146 25.2046 21.7341C25.1326 21.7537 25.0652 21.7872 25.0062 21.8329C24.9472 21.8785 24.8978 21.9353 24.8608 22L24.15 23.2321C23.9929 23.5036 24.0858 23.8536 24.3572 24.0107L28.2965 26.2857C28.3612 26.3228 28.4326 26.3467 28.5065 26.3562C28.5805 26.3656 28.6556 26.3604 28.7276 26.3409C28.7996 26.3213 28.867 26.2878 28.926 26.2421C28.985 26.1965 29.0344 26.1397 29.0715 26.075L29.7822 24.8429C29.9393 24.5714 29.8429 24.2214 29.575 24.0643ZM24.8572 10C24.8942 10.0647 24.9437 10.1215 25.0027 10.1671C25.0617 10.2128 25.1291 10.2463 25.201 10.2659C25.273 10.2854 25.3481 10.2906 25.4221 10.2812C25.4961 10.2717 25.5675 10.2478 25.6322 10.2107L29.5715 7.93571C29.8429 7.77857 29.9358 7.42857 29.7786 7.15714L29.0715 5.92857C29.0344 5.86384 28.985 5.80705 28.926 5.76143C28.867 5.71581 28.7996 5.68225 28.7276 5.66269C28.6556 5.64312 28.5805 5.63792 28.5065 5.64739C28.4326 5.65685 28.3612 5.6808 28.2965 5.71786L24.3572 7.99285C24.2267 8.06889 24.1317 8.19349 24.0929 8.33939C24.0541 8.48529 24.0746 8.64063 24.15 8.77143L24.8572 10ZM31.0715 14.7143H26.5C26.1858 14.7143 25.9286 14.9714 25.9286 15.2857V16.7143C25.9286 17.0286 26.1858 17.2857 26.5 17.2857H31.0715C31.3857 17.2857 31.6429 17.0286 31.6429 16.7143V15.2857C31.6429 14.9714 31.3857 14.7143 31.0715 14.7143ZM20.0679 1.82143C19.8572 1.82143 19.6429 1.87857 19.4465 2.01071L6.78575 10.2857H0.928606C0.614321 10.2857 0.357178 10.5429 0.357178 10.8571V21.1429C0.357178 21.4571 0.614321 21.7143 0.928606 21.7143H6.78575L19.4465 29.9893C19.6429 30.1179 19.8608 30.1786 20.0679 30.1786C20.6643 30.1786 21.2143 29.7036 21.2143 29.0321V2.96786C21.2143 2.29643 20.6643 1.82143 20.0679 1.82143Z" fill="black"/>
</svg>
