<svg width="35" height="40" viewBox="0 0 35 40" fill="none" xmlns="http://www.w3.org/2000/svg">
<path d="M25.2781 4C23.6531 5.50781 22.1859 7.09297 20.8859 8.68516C18.7563 5.75156 16.1156 2.77578 13.125 0C5.44844 7.12266 0 16.4031 0 22C0 31.9414 7.83516 40 17.5 40C27.1648 40 35 31.9414 35 22C35 17.8383 30.9391 9.25469 25.2781 4ZM23.757 30.6133C22.0648 31.7977 19.9781 32.5 17.7234 32.5C12.0867 32.5 7.5 28.7703 7.5 22.7148C7.5 19.6984 9.39922 17.0406 13.1867 12.5C13.7281 13.1234 20.9078 22.2922 20.9078 22.2922L25.4883 17.0672C25.8117 17.6023 26.1062 18.1258 26.3687 18.6273C28.5055 22.7047 27.6039 27.9219 23.757 30.6133Z" fill="#FF1D1D"/>
</svg>
