<svg display="none" xmlns="http://www.w3.org/2000/svg">
<symbol id="easy" viewBox="0 0 48 48">
<path d="M24 0C10.7464 0 0 10.7464 0 24C0 37.2536 10.7464 48 24 48C37.2536 48 48 37.2536 48 24C48 10.7464 37.2536 0 24 0ZM34.3661 16.1625L23.0839 31.8054C22.9262 32.0254 22.7184 32.2048 22.4775 32.3285C22.2367 32.4522 21.9699 32.5167 21.6991 32.5167C21.4284 32.5167 21.1615 32.4522 20.9207 32.3285C20.6798 32.2048 20.472 32.0254 20.3143 31.8054L13.6339 22.5482C13.4304 22.2643 13.6339 21.8679 13.9821 21.8679H16.4946C17.0411 21.8679 17.5607 22.1304 17.8821 22.5804L21.6964 27.8732L30.1179 16.1946C30.4393 15.75 30.9536 15.4821 31.5054 15.4821H34.0179C34.3661 15.4821 34.5696 15.8786 34.3661 16.1625Z"/>
</symbol>

<symbol id="hard" width="49" height="56" viewBox="0 0 49 56" >
<path d="M35.3894 5.6C33.1144 7.71094 31.0603 9.93016 29.2403 12.1592C26.2587 8.05219 22.5619 3.88609 18.375 0C7.62781 9.97172 0 22.9644 0 30.8C0 44.718 10.9692 56 24.5 56C38.0308 56 49 44.718 49 30.8C49 24.9736 43.3147 12.9566 35.3894 5.6ZM33.2598 42.8586C30.8908 44.5167 27.9694 45.5 24.8128 45.5C16.9214 45.5 10.5 40.2784 10.5 31.8008C10.5 27.5778 13.1589 23.8569 18.4614 17.5C19.2194 18.3728 29.2709 31.2091 29.2709 31.2091L35.6836 23.8941C36.1364 24.6433 36.5487 25.3761 36.9162 26.0783C39.9077 31.7866 38.6455 39.0906 33.2598 42.8586Z" />
</symbol>

<symbol id="sound" width="62" height="52" viewBox="0 0 62 52" >
<path d="M57.3015 40.6165L49.6691 36.4931C49.5437 36.4259 49.4054 36.3825 49.2621 36.3654C49.1188 36.3482 48.9732 36.3576 48.8338 36.3931C48.6943 36.4285 48.5637 36.4894 48.4494 36.572C48.3351 36.6547 48.2393 36.7577 48.1676 36.875L46.7906 39.1083C46.4861 39.6002 46.666 40.2346 47.1919 40.5194L54.8243 44.6429C54.9497 44.71 55.088 44.7534 55.2313 44.7706C55.3746 44.7877 55.5202 44.7783 55.6596 44.7428C55.799 44.7074 55.9296 44.6466 56.044 44.5639C56.1583 44.4812 56.254 44.3783 56.3258 44.2609L57.7028 42.0277C58.0073 41.5357 57.8205 40.9013 57.3015 40.6165ZM48.1606 15.125C48.2324 15.2423 48.3282 15.3453 48.4425 15.4279C48.5568 15.5106 48.6874 15.5714 48.8269 15.6069C48.9663 15.6424 49.1118 15.6518 49.2552 15.6346C49.3985 15.6175 49.5368 15.5741 49.6622 15.5069L57.2946 11.3835C57.8205 11.0987 58.0004 10.4643 57.6959 9.97231L56.3258 7.74553C56.254 7.62821 56.1583 7.52527 56.044 7.44258C55.9296 7.35989 55.799 7.29908 55.6596 7.26362C55.5202 7.22815 55.3746 7.21873 55.2313 7.23588C55.088 7.25304 54.9497 7.29644 54.8243 7.36361L47.1919 11.487C46.9392 11.6249 46.7551 11.8507 46.6799 12.1151C46.6047 12.3796 46.6445 12.6611 46.7906 12.8982L48.1606 15.125ZM60.2008 23.6696H51.3437C50.7348 23.6696 50.2365 24.1357 50.2365 24.7054V27.2946C50.2365 27.8643 50.7348 28.3304 51.3437 28.3304H60.2008C60.8098 28.3304 61.308 27.8643 61.308 27.2946V24.7054C61.308 24.1357 60.8098 23.6696 60.2008 23.6696ZM38.8814 0.301331C38.4731 0.301331 38.058 0.404902 37.6774 0.644411L13.1473 15.6428H1.79904C1.19011 15.6428 0.691895 16.1089 0.691895 16.6786V35.3214C0.691895 35.8911 1.19011 36.3571 1.79904 36.3571H13.1473L37.6774 51.3556C38.058 51.5886 38.4801 51.6987 38.8814 51.6987C40.037 51.6987 41.1026 50.8377 41.1026 49.6208V2.37923C41.1026 1.16227 40.037 0.301331 38.8814 0.301331Z" />
</symbol>

</svg>